<svg width="76" height="65" viewBox="0 0 76 65" fill="none" xmlns="http://www.w3.org/2000/svg">
<path d="M13.1949 52.1581H15.0749L11.0749 62.1581H9.03491L5.03491 52.1581H6.91491L10.0549 60.2981L13.1949 52.1581ZM24.4358 52.1581H26.1758V62.1581H24.4358V60.4381C23.5692 61.7581 22.3092 62.4181 20.6558 62.4181C19.2558 62.4181 18.0625 61.9115 17.0758 60.8981C16.0892 59.8715 15.5958 58.6248 15.5958 57.1581C15.5958 55.6915 16.0892 54.4515 17.0758 53.4381C18.0625 52.4115 19.2558 51.8981 20.6558 51.8981C22.3092 51.8981 23.5692 52.5581 24.4358 53.8781V52.1581ZM20.8758 60.7381C21.8892 60.7381 22.7358 60.3981 23.4158 59.7181C24.0958 59.0248 24.4358 58.1715 24.4358 57.1581C24.4358 56.1448 24.0958 55.2981 23.4158 54.6181C22.7358 53.9248 21.8892 53.5781 20.8758 53.5781C19.8758 53.5781 19.0358 53.9248 18.3558 54.6181C17.6758 55.2981 17.3358 56.1448 17.3358 57.1581C17.3358 58.1715 17.6758 59.0248 18.3558 59.7181C19.0358 60.3981 19.8758 60.7381 20.8758 60.7381ZM28.8121 62.1581V47.5581H30.5521V62.1581H28.8121ZM41.6466 60.8981C40.62 61.9115 39.3733 62.4181 37.9066 62.4181C36.44 62.4181 35.1933 61.9115 34.1666 60.8981C33.1533 59.8848 32.6466 58.6381 32.6466 57.1581C32.6466 55.6781 33.1533 54.4315 34.1666 53.4181C35.1933 52.4048 36.44 51.8981 37.9066 51.8981C39.3733 51.8981 40.62 52.4048 41.6466 53.4181C42.6733 54.4315 43.1866 55.6781 43.1866 57.1581C43.1866 58.6381 42.6733 59.8848 41.6466 60.8981ZM37.9066 60.7181C38.9066 60.7181 39.7466 60.3781 40.4266 59.6981C41.1066 59.0181 41.4466 58.1715 41.4466 57.1581C41.4466 56.1448 41.1066 55.2981 40.4266 54.6181C39.7466 53.9381 38.9066 53.5981 37.9066 53.5981C36.92 53.5981 36.0866 53.9381 35.4066 54.6181C34.7266 55.2981 34.3866 56.1448 34.3866 57.1581C34.3866 58.1715 34.7266 59.0181 35.4066 59.6981C36.0866 60.3781 36.92 60.7181 37.9066 60.7181ZM46.9779 53.8381C47.5512 52.5981 48.5912 51.9781 50.0979 51.9781V53.7981C49.2445 53.7581 48.5112 53.9848 47.8979 54.4781C47.2845 54.9715 46.9779 55.7648 46.9779 56.8581V62.1581H45.2379V52.1581H46.9779V53.8381ZM52.4735 57.9581C52.6468 58.8515 53.0535 59.5448 53.6935 60.0381C54.3468 60.5315 55.1468 60.7781 56.0935 60.7781C57.4135 60.7781 58.3735 60.2915 58.9735 59.3181L60.4535 60.1581C59.4802 61.6648 58.0135 62.4181 56.0535 62.4181C54.4668 62.4181 53.1735 61.9248 52.1735 60.9381C51.1868 59.9381 50.6935 58.6781 50.6935 57.1581C50.6935 55.6515 51.1802 54.3981 52.1535 53.3981C53.1268 52.3981 54.3868 51.8981 55.9335 51.8981C57.4002 51.8981 58.5935 52.4181 59.5135 53.4581C60.4468 54.4848 60.9135 55.7248 60.9135 57.1781C60.9135 57.4315 60.8935 57.6915 60.8535 57.9581H52.4735ZM55.9335 53.5381C55.0002 53.5381 54.2268 53.8048 53.6135 54.3381C53.0002 54.8581 52.6202 55.5581 52.4735 56.4381H59.1535C59.0068 55.4915 58.6335 54.7715 58.0335 54.2781C57.4335 53.7848 56.7335 53.5381 55.9335 53.5381ZM64.023 54.8581C64.023 55.2448 64.2164 55.5581 64.603 55.7981C64.9897 56.0248 65.4564 56.2115 66.003 56.3581C66.5497 56.4915 67.0964 56.6515 67.643 56.8381C68.1897 57.0115 68.6564 57.3181 69.043 57.7581C69.4297 58.1848 69.623 58.7381 69.623 59.4181C69.623 60.3248 69.2697 61.0515 68.563 61.5981C67.8697 62.1448 66.9764 62.4181 65.883 62.4181C64.9097 62.4181 64.0764 62.2048 63.383 61.7781C62.6897 61.3515 62.1964 60.7848 61.903 60.0781L63.403 59.2181C63.563 59.6981 63.863 60.0781 64.303 60.3581C64.743 60.6381 65.2697 60.7781 65.883 60.7781C66.4564 60.7781 66.9297 60.6715 67.303 60.4581C67.6764 60.2315 67.863 59.8848 67.863 59.4181C67.863 59.0315 67.6697 58.7248 67.283 58.4981C66.8964 58.2581 66.4297 58.0715 65.883 57.9381C65.3364 57.7915 64.7897 57.6248 64.243 57.4381C63.6964 57.2515 63.2297 56.9448 62.843 56.5181C62.4564 56.0915 62.263 55.5448 62.263 54.8781C62.263 54.0115 62.5964 53.2981 63.263 52.7381C63.943 52.1781 64.7897 51.8981 65.803 51.8981C66.6164 51.8981 67.3364 52.0848 67.963 52.4581C68.603 52.8181 69.083 53.3248 69.403 53.9781L67.943 54.7981C67.583 53.9448 66.8697 53.5181 65.803 53.5181C65.3097 53.5181 64.8897 53.6381 64.543 53.8781C64.1964 54.1048 64.023 54.4315 64.023 54.8581Z" fill="#B20B0B"/>
<path fill-rule="evenodd" clip-rule="evenodd" d="M35.127 39.2085L23.4821 17.3995L20.5179 16.6281C20.5179 16.6281 19.3181 16.4704 18.5417 15.0854L13.1781 2.53307C13.1781 2.53307 13.0545 1.95447 13.6721 2.18244L18.7535 11.9999C18.7535 11.9999 19.8474 12.7012 19.8121 11.4389L14.5189 1.76168C14.5189 1.76168 14.3773 1.3584 14.8718 1.41105L20.3767 11.0182C20.3767 11.0182 21.3824 11.7545 21.3648 10.5273L15.6481 1.13043C15.6481 1.13043 15.4711 0.621959 16.001 0.779801L22.0706 10.2467C22.0706 10.2467 23.0762 10.5622 22.988 9.61555L16.9185 0.359046C16.9185 0.359046 16.7769 -0.201963 17.4125 0.0785409L25.811 10.8077C25.811 10.8077 26.6226 11.8069 26.1639 13.4024L25.4581 16.2073L37.95 35.4919L35.127 39.2085ZM37.95 35.4919L38.1617 35.7724L36.1151 38.3671L35.8328 38.7877L35.762 39.6292V40.1902C35.762 40.1902 35.9266 41.1019 35.8328 40.4006L35.127 39.2085" fill="#B20B0B"/>
<path fill-rule="evenodd" clip-rule="evenodd" d="M35.6922 39.2085C35.6922 39.2085 35.3722 41.435 36.8918 42.294C36.8918 42.294 39.0598 43.7316 41.0558 41.6629C41.0558 41.6629 41.4416 41.4525 42.1851 39.1383C42.1851 39.1383 45.9256 30.5309 46.1373 30.3026C46.3491 30.0743 50.1601 21.6422 50.5835 21.3266C50.5835 21.3266 52.4538 17.5749 53.4066 16.9087C53.4066 16.9087 56.0179 17.5223 57.3588 16.6983C57.3588 16.6983 60.2348 15.6465 61.5629 11.9147C61.5511 11.9404 62.4126 9.82629 62.6519 8.00278C62.6519 8.00278 62.9872 3.76017 61.8756 2.67333C61.8756 2.67333 60.7464 0.761874 57.7117 1.34094C57.7117 1.34094 52.992 2.58562 50.6541 6.88077C50.6541 6.88077 48.6162 10.6149 49.3945 12.663C49.756 13.7205 50.3018 14.7065 51.007 15.5763C51.007 15.5763 50.1425 18.206 49.1015 19.5033C49.1015 19.5033 44.5494 26.6035 44.4435 26.6566C44.3376 26.7098 37.139 36.9301 36.9625 36.9651C36.9625 36.9646 35.551 38.4723 35.6922 39.2085ZM36.2568 38.7176C36.2568 38.7176 35.4965 40.4883 36.8918 41.733C36.8918 41.733 38.8136 43.5212 40.8441 41.2421C40.8441 41.2421 43.8064 33.8965 44.2313 33.318C44.2313 33.318 47.4954 26.2702 47.9718 25.5341C47.9718 25.5341 50.7242 19.8539 51.2182 19.1527C51.2182 19.1527 52.7886 16.6107 53.3355 16.4178C53.3355 16.4178 55.4351 17.1016 57.0761 16.3474C57.0761 16.3474 59.5285 15.2342 60.7465 12.5607C60.7465 12.5607 62.387 9.01926 62.2286 7.37142C62.2286 7.37142 62.5109 3.53208 61.0994 2.60297C60.5293 2.12626 59.8313 1.82576 59.0914 1.73853C58.3514 1.6513 57.602 1.78116 56.9355 2.11209C54.5359 3.25158 53.7243 4.00537 52.9832 4.77676C52.2422 5.54814 50.3543 7.96748 49.8779 10.1063C49.8779 10.1063 49.4368 14.1911 51.7834 15.3657C51.7834 15.3657 49.3133 20.6251 47.9724 22.2375C47.9724 22.2375 43.826 28.5195 43.4556 28.8994C43.0011 29.3654 37.6507 37.1216 36.9626 37.8052L36.2568 38.7176Z" fill="#B20B0B"/>
</svg>
